<svg xmlns="http://www.w3.org/2000/svg" xmlns:xlink="http://www.w3.org/1999/xlink" viewBox="70 185 475 475">
  <defs>
    <linearGradient id="g" x1="32.44" y1="691.84" x2="460.55" y2="226.67" gradientUnits="userSpaceOnUse">
      <stop offset="0" stop-color="#e95d27"/>
      <stop offset="0.5" stop-color="#f9b03b"/>
      <stop offset="0.94" stop-color="#e95d27"/>
    </linearGradient>
  </defs>
  <path fill="#1169ad" d="M101.62,417.66V188.37H239.84V375.13S206.19,424.75,101.62,417.66Z"/>
  <path fill="#1169ad" d="M365.71,660.48,312.53,550.59s-1.77-101,56.72-147.1l156,253.45s0,5.31-1.77,5.31S365.71,660.48,365.71,660.48Z"/>
  <path fill="url(#g)" d="M386.2,192.57H511c-8.86,40.77-104.57,148.88-104.57,148.88s-54.94,58.49-75.84,90.39-28.13,101-28.13,101l-23.64-42.54c-8.86-15.95-19.5-17.72-19.5-17.72-24.81,0-24.81,21.27-24.81,21.27l-1.34,165.37H103.39V429.18l47.08-.69a93.45,93.45,0,0,0,30.65-5.61c22.19-8.09,61.73-26.54,96.12-63.71.95-1,2-1.95,3-2.95C287.72,348.54,326.76,311.26,386.2,192.57Z"/>
  <path fill="#1e5b99" d="M102.51,188.14l137.33.24L239,374.24S233.66,218.27,102.51,188.14Z"/>
  <path fill="#135d96" d="M348.87,424.57S276.3,587.69,466.47,661.62l-100.76-1.14L312.53,550.59S311.65,474.89,348.87,424.57Z"/>
</svg>
