<svg id="Capa_1" data-name="Capa 1" xmlns="http://www.w3.org/2000/svg" xmlns:xlink="http://www.w3.org/1999/xlink" viewBox="0 0 1214.08 474.11"><defs><style>.cls-1{fill:#1169ad;}.cls-2{fill:url(#Degradado_sin_nombre_17);}.cls-3{fill:#f08130;}.cls-4{fill:#135d96;}.cls-5{fill:#1e5b99;}</style><linearGradient id="Degradado_sin_nombre_17" x1="32.44" y1="691.84" x2="460.55" y2="226.67" gradientUnits="userSpaceOnUse"><stop offset="0" stop-color="#e95d27"/><stop offset="0.5" stop-color="#f9b03b"/><stop offset="0.94" stop-color="#e95d27"/></linearGradient></defs><path class="cls-1" d="M101.62,417.66V188.37H239.84V375.13S206.19,424.75,101.62,417.66Z" transform="translate(-101.62 -188.14)"/><path class="cls-1" d="M365.71,660.48,312.53,550.59s-1.77-101,56.72-147.1l156,253.45s0,5.31-1.77,5.31S365.71,660.48,365.71,660.48Z" transform="translate(-101.62 -188.14)"/><path class="cls-2" d="M386.2,192.57H511c-8.86,40.77-104.57,148.88-104.57,148.88s-54.94,58.49-75.84,90.39-28.13,101-28.13,101l-23.64-42.54c-8.86-15.95-19.5-17.72-19.5-17.72-24.81,0-24.81,21.27-24.81,21.27l-1.34,165.37H103.39V429.18l47.08-.69a93.45,93.45,0,0,0,30.65-5.61c22.19-8.09,61.73-26.54,96.12-63.71.95-1,2-1.95,3-2.95C287.72,348.54,326.76,311.26,386.2,192.57Z" transform="translate(-101.62 -188.14)"/><polygon class="cls-3" points="451.96 284.47 466.14 70.01 552.1 70.01 538.89 284.47 451.96 284.47"/><polygon class="cls-3" points="547.67 171.03 627.17 284.47 724.59 284.47 632.74 172.81 726.42 70.01 637.04 70.01 547.67 171.03"/><polygon class="cls-3" points="747.92 284.47 758.58 124.95 834.82 124.95 828.88 284.47 747.92 284.47"/><polygon class="cls-1" points="760.35 105.46 762.1 70.01 838.71 70.01 837.34 105.46 760.35 105.46"/><polygon class="cls-3" points="1100.65 284.47 1116.6 70.01 1192.27 70.01 1180.95 284.47 1100.65 284.47"/><path class="cls-3" d="M1175.68,394.62s23-83.3-97.48-93.93c0,0-103.42-5.19-109.56,88.55-.12,1.89-.24,3.77-.42,5.66-1.21,12.93-3.28,82.7,94,79.48,0,0,39,0,88.62-5.32l8.86-47.85s-38.43,14.41-84.86,9.75a42.53,42.53,0,0,1-21.92-8.64c-7.09-5.54-13.74-14.4-12-27.7Zm-99.25-54.94c26.59-1.77,30.85,28.36,30.85,28.36h-64.52S1049.85,341.45,1076.43,339.68Z" transform="translate(-101.62 -188.14)"/><rect class="cls-1" x="412.97" y="302.19" width="801.12" height="12.41"/><path class="cls-4" d="M559.83,594a5.43,5.43,0,0,1-2.61-.49,2.36,2.36,0,0,1-1.11-1.42,8.22,8.22,0,0,1-.26-2.17V536.1a4.19,4.19,0,0,1,.93-3.15,5,5,0,0,1,3.32-.84h35.63a6.86,6.86,0,0,1,2.08.27,2.09,2.09,0,0,1,1.28,1.15,6.08,6.08,0,0,1,.45,2.65,5.45,5.45,0,0,1-.49,2.62,2.31,2.31,0,0,1-1.38,1.11,7.65,7.65,0,0,1-2.12.27H563.83v18.34h22.06a6.56,6.56,0,0,1,2.08.27,2.18,2.18,0,0,1,1.29,1.06,5.38,5.38,0,0,1,.44,2.48,5.13,5.13,0,0,1-.44,2.39,2,2,0,0,1-1.29,1,8.62,8.62,0,0,1-2.17.22h-22v24a7.29,7.29,0,0,1-.27,2.12,2.36,2.36,0,0,1-1.11,1.38A5.45,5.45,0,0,1,559.83,594Z" transform="translate(-101.62 -188.14)"/><path class="cls-4" d="M647.12,593.88a4,4,0,0,1-2.79-.8,3.88,3.88,0,0,1-1-2.48l.36-4.43a18.58,18.58,0,0,1-2.75,3.23,17,17,0,0,1-4.88,3.19,17.56,17.56,0,0,1-7.35,1.38,18.84,18.84,0,0,1-7.93-1.69,20.3,20.3,0,0,1-6.47-4.69,22.07,22.07,0,0,1-4.34-6.92,22.39,22.39,0,0,1-1.55-8.33,21.81,21.81,0,0,1,1.55-8.19,20.58,20.58,0,0,1,4.39-6.78,21,21,0,0,1,6.51-4.61,18.63,18.63,0,0,1,7.84-1.69,19.17,19.17,0,0,1,6.65,1,16.45,16.45,0,0,1,4.74,2.66,21,21,0,0,1,3.5,3.68l-.18-3.72a3.42,3.42,0,0,1,.84-2.79,4.3,4.3,0,0,1,3-.85,4.37,4.37,0,0,1,2.44.53,2.7,2.7,0,0,1,1,1.51,9.61,9.61,0,0,1,.26,2.4v34.2a8.79,8.79,0,0,1-.26,2.22,2.36,2.36,0,0,1-1.06,1.46A5,5,0,0,1,647.12,593.88ZM630,586.52a12,12,0,0,0,6.51-1.86,13.4,13.4,0,0,0,4.7-5,14.74,14.74,0,0,0,1.73-7.22,14.39,14.39,0,0,0-1.82-7.31,13.71,13.71,0,0,0-4.78-5,12.17,12.17,0,0,0-6.52-1.82,13.47,13.47,0,0,0-7.22,1.9,13.83,13.83,0,0,0-4.83,5.1,14.74,14.74,0,0,0-1.77,7.27,14.26,14.26,0,0,0,1.77,7.13,12.88,12.88,0,0,0,4.92,5A14.27,14.27,0,0,0,630,586.52Z" transform="translate(-101.62 -188.14)"/><path class="cls-4" d="M664.94,594.05a5.25,5.25,0,0,1-2.53-.48,2.36,2.36,0,0,1-1.11-1.42,7.84,7.84,0,0,1-.26-2.08V535.39a8.14,8.14,0,0,1,.26-2.22,2.31,2.31,0,0,1,1.11-1.37,5.24,5.24,0,0,1,2.53-.49,4.59,4.59,0,0,1,2.48.53,2.58,2.58,0,0,1,1.06,1.42,7.41,7.41,0,0,1,.27,2.13v55.47a3.67,3.67,0,0,1-1,2.44A4.16,4.16,0,0,1,664.94,594.05Zm18.43-.08a19.11,19.11,0,0,1-7.89-1.6,16.81,16.81,0,0,1-6-4.52A21.4,21.4,0,0,1,665.6,581a24.46,24.46,0,0,1-1.28-8.6,26.79,26.79,0,0,1,1.32-8.55,20.06,20.06,0,0,1,3.86-6.83,17.62,17.62,0,0,1,6-4.47,19.59,19.59,0,0,1,15.51,0,19.33,19.33,0,0,1,6.29,4.47,21.46,21.46,0,0,1,4.25,6.78,23,23,0,0,1,1.55,8.51,23.46,23.46,0,0,1-1.55,8.64,21.67,21.67,0,0,1-4.25,6.87,19,19,0,0,1-6.29,4.52A18.72,18.72,0,0,1,683.37,594Zm-1.15-7.54a13,13,0,0,0,6.73-1.77,12.61,12.61,0,0,0,4.74-4.92,14.74,14.74,0,0,0,1.73-7.22,14.93,14.93,0,0,0-1.73-7.31,12.77,12.77,0,0,0-4.69-4.92,13,13,0,0,0-6.78-1.77,12.64,12.64,0,0,0-11.39,6.69,14.93,14.93,0,0,0-1.73,7.31,14.74,14.74,0,0,0,1.73,7.22,12.64,12.64,0,0,0,11.39,6.69Z" transform="translate(-101.62 -188.14)"/><path class="cls-4" d="M717,594a5.21,5.21,0,0,1-2.53-.49,2.15,2.15,0,0,1-1.06-1.42,9.3,9.3,0,0,1-.22-2.17V555a8.14,8.14,0,0,1,.26-2.22,2.05,2.05,0,0,1,1.06-1.29,6.07,6.07,0,0,1,2.57-.4,5.79,5.79,0,0,1,2.44.4,2.28,2.28,0,0,1,1.16,1.15,4.68,4.68,0,0,1,.3,1.73l-.35,2.66a18.76,18.76,0,0,1,1.46-2.3,9.41,9.41,0,0,1,2.13-2.09,12,12,0,0,1,3.1-1.55,14.07,14.07,0,0,1,4.48-.62,14.59,14.59,0,0,1,2.52.22,12.78,12.78,0,0,1,2.31.67,9.4,9.4,0,0,1,1.9,1,5.89,5.89,0,0,1,1.29,1.24,2.57,2.57,0,0,1,.48,1.55,4.75,4.75,0,0,1-1.24,3.32,3.5,3.5,0,0,1-4.25,1.07c-.35-.21-.69-.43-1-.67a5.65,5.65,0,0,0-1.37-.66,9.31,9.31,0,0,0-2.84-.31,8,8,0,0,0-2.79.53A10.56,10.56,0,0,0,724,560a7.76,7.76,0,0,0-3,6.34v23.75a7.8,7.8,0,0,1-.26,2.13,2.17,2.17,0,0,1-1.11,1.32A5.76,5.76,0,0,1,717,594Z" transform="translate(-101.62 -188.14)"/><path class="cls-4" d="M753.38,540.44a5.8,5.8,0,0,1-2.93-.58,2.69,2.69,0,0,1-1.28-1.64,8.68,8.68,0,0,1-.32-2.48,7.32,7.32,0,0,1,.36-2.43,2.58,2.58,0,0,1,1.33-1.51,6.87,6.87,0,0,1,2.92-.49,6.13,6.13,0,0,1,2.84.53,2.61,2.61,0,0,1,1.29,1.6,9.15,9.15,0,0,1,.3,2.48,8.75,8.75,0,0,1-.3,2.44,2.6,2.6,0,0,1-1.29,1.55A6.33,6.33,0,0,1,753.38,540.44Zm0,53.53a5.21,5.21,0,0,1-2.53-.49,2.33,2.33,0,0,1-1.11-1.38,7.65,7.65,0,0,1-.27-2.12V555a7.72,7.72,0,0,1,.27-2.13,2.13,2.13,0,0,1,1.11-1.33,5.76,5.76,0,0,1,2.61-.45,5,5,0,0,1,2.49.49,2.34,2.34,0,0,1,1.06,1.38,7.69,7.69,0,0,1,.26,2.21v34.92a7.43,7.43,0,0,1-.26,2.13,2.17,2.17,0,0,1-1.11,1.32A5.53,5.53,0,0,1,753.38,594Z" transform="translate(-101.62 -188.14)"/><path class="cls-4" d="M789.09,594.14a24.38,24.38,0,0,1-8.64-1.51,21.18,21.18,0,0,1-7.09-4.34,20.1,20.1,0,0,1-4.78-6.78,24.22,24.22,0,0,1,0-18,20.42,20.42,0,0,1,4.74-6.78,20.69,20.69,0,0,1,7-4.35,24.34,24.34,0,0,1,8.55-1.5,19.19,19.19,0,0,1,5.94.93,21.37,21.37,0,0,1,5.19,2.39,10.08,10.08,0,0,1,3.23,3.06,15.3,15.3,0,0,1,1.29,1.9,2.07,2.07,0,0,1,0,1.73,4.38,4.38,0,0,1-1,1.28,7.12,7.12,0,0,1-1.24.94,2.71,2.71,0,0,1-3.19.35,17.81,17.81,0,0,0-2.18-1.82,25.33,25.33,0,0,0-2.52-1.55,14.78,14.78,0,0,0-2.7-1.11,10.56,10.56,0,0,0-2.89-.4,15.07,15.07,0,0,0-7.35,1.74,12,12,0,0,0-4.92,4.87,14.93,14.93,0,0,0-1.73,7.31,14.66,14.66,0,0,0,1.73,7.26,12.42,12.42,0,0,0,4.87,4.88,14.51,14.51,0,0,0,7.23,1.77,13.4,13.4,0,0,0,3.59-.48,14.86,14.86,0,0,0,3.23-1.34A10.74,10.74,0,0,0,798,582.8l1.51-1.06a2.47,2.47,0,0,1,1.5-.45,2.57,2.57,0,0,1,1.51.58,8.91,8.91,0,0,1,1.69,1.72,3.34,3.34,0,0,1,.84,1.69,2.64,2.64,0,0,1-.31,1.69,5.81,5.81,0,0,1-1.42,1.59,16.5,16.5,0,0,1-3.77,2.7,25.39,25.39,0,0,1-5.09,2.09A19.41,19.41,0,0,1,789.09,594.14Z" transform="translate(-101.62 -188.14)"/><path class="cls-4" d="M850.41,593.88a4,4,0,0,1-2.79-.8,3.88,3.88,0,0,1-1-2.48l.36-4.43a18.58,18.58,0,0,1-2.75,3.23,17.12,17.12,0,0,1-4.88,3.19A17.56,17.56,0,0,1,832,594a18.84,18.84,0,0,1-7.93-1.69,20.19,20.19,0,0,1-6.47-4.69,22.2,22.2,0,0,1-5.9-15.25,21.81,21.81,0,0,1,1.55-8.19,20.76,20.76,0,0,1,4.4-6.78,21,21,0,0,1,6.51-4.61,18.63,18.63,0,0,1,7.84-1.69,19.21,19.21,0,0,1,6.65,1,16.58,16.58,0,0,1,4.74,2.66,21.37,21.37,0,0,1,3.5,3.68l-.18-3.72a3.38,3.38,0,0,1,.84-2.79,4.3,4.3,0,0,1,3-.85,4.39,4.39,0,0,1,2.44.53,2.7,2.7,0,0,1,1,1.51,9.61,9.61,0,0,1,.26,2.4v34.2a8.79,8.79,0,0,1-.26,2.22,2.34,2.34,0,0,1-1.07,1.46A4.94,4.94,0,0,1,850.41,593.88Zm-17.1-7.36a12,12,0,0,0,6.51-1.86,13.4,13.4,0,0,0,4.7-5,14.74,14.74,0,0,0,1.72-7.22,14.39,14.39,0,0,0-1.81-7.31,13.74,13.74,0,0,0-4.79-5,12.11,12.11,0,0,0-6.51-1.82,13.45,13.45,0,0,0-7.22,1.9,13.83,13.83,0,0,0-4.83,5.1,14.63,14.63,0,0,0-1.77,7.27,14.15,14.15,0,0,0,1.77,7.13,12.88,12.88,0,0,0,4.92,5A14.27,14.27,0,0,0,833.31,586.52Z" transform="translate(-101.62 -188.14)"/><path class="cls-4" d="M868.58,594a4.49,4.49,0,0,1-2.48-.54A2.47,2.47,0,0,1,865,592a7.24,7.24,0,0,1-.27-2.12v-35.1a6.43,6.43,0,0,1,.27-2,2.09,2.09,0,0,1,1.1-1.24,5.55,5.55,0,0,1,2.53-.45,4.1,4.1,0,0,1,2.79.76,3.38,3.38,0,0,1,.84,2.61l-.35,3.81a10.4,10.4,0,0,1,1.86-2.66,14.33,14.33,0,0,1,3-2.39,16.47,16.47,0,0,1,3.67-1.68A13.91,13.91,0,0,1,890,552a14.22,14.22,0,0,1,4.39,3.15,17.2,17.2,0,0,1,3.27,5.05,29.24,29.24,0,0,1,3.77-5A14,14,0,0,1,906,552a14.36,14.36,0,0,1,5.76-1.1,13.85,13.85,0,0,1,8.46,2.52,15.27,15.27,0,0,1,5.14,7.09,31,31,0,0,1,1.73,11V590a9.21,9.21,0,0,1-.22,2.12,2.16,2.16,0,0,1-1.07,1.38,5.43,5.43,0,0,1-2.61.49,4.7,4.7,0,0,1-2.52-.54,2.4,2.4,0,0,1-1.11-1.42,7.24,7.24,0,0,1-.27-2.12V571.37a22.47,22.47,0,0,0-.93-6.87A9.43,9.43,0,0,0,915.5,560a7.41,7.41,0,0,0-4.91-1.59,9.86,9.86,0,0,0-9.4,6,16.56,16.56,0,0,0-1.32,6.92v18.7a4.79,4.79,0,0,1-.54,2.3,2.92,2.92,0,0,1-1.59,1.38,5,5,0,0,1-2.57.13,4.54,4.54,0,0,1-2.13-.71,2.27,2.27,0,0,1-.89-1.37,9.23,9.23,0,0,1-.17-1.91V571.37a22.78,22.78,0,0,0-.93-6.87,9.5,9.5,0,0,0-2.84-4.48,7.42,7.42,0,0,0-4.92-1.59,9.88,9.88,0,0,0-5.63,1.64,10.62,10.62,0,0,0-3.76,4.56,16.09,16.09,0,0,0-1.33,6.74V590a7.29,7.29,0,0,1-.27,2.12,2.35,2.35,0,0,1-1.1,1.38A5.51,5.51,0,0,1,868.58,594Z" transform="translate(-101.62 -188.14)"/><path class="cls-4" d="M957.37,594.5a21,21,0,0,1-8.29-1.69,23.44,23.44,0,0,1-7-4.65,21.7,21.7,0,0,1-4.87-7,21,21,0,0,1-1.77-8.68,21.59,21.59,0,0,1,1.68-8.55,21.88,21.88,0,0,1,4.7-7,22.34,22.34,0,0,1,7-4.74,20.9,20.9,0,0,1,8.47-1.73,21.43,21.43,0,0,1,11,2.88,22.18,22.18,0,0,1,4.21,34.87,22.06,22.06,0,0,1-6.92,4.57A20.85,20.85,0,0,1,957.37,594.5Zm-.17-7.72a13.51,13.51,0,0,0,6.91-1.85,14.39,14.39,0,0,0,7.09-12.59,14.66,14.66,0,0,0-1.82-7.36,12.91,12.91,0,0,0-5-5,14.84,14.84,0,0,0-7.26-1.77,13.58,13.58,0,0,0-7.05,1.86,14.4,14.4,0,0,0-5,5.06,13.88,13.88,0,0,0-1.91,7.26,14.32,14.32,0,0,0,1.95,7.49,14.11,14.11,0,0,0,12.15,6.86Z" transform="translate(-101.62 -188.14)"/><path class="cls-4" d="M1001.86,594.41a24,24,0,0,1-4.43-.44,26.58,26.58,0,0,1-4.47-1.29,17.81,17.81,0,0,1-3.82-2,8,8,0,0,1-2.43-2.57,4.79,4.79,0,0,1-.53-1.64,2.53,2.53,0,0,1,.26-1.47,5.88,5.88,0,0,1,1.06-1.42,2.3,2.3,0,0,1,1.78-1,4.08,4.08,0,0,1,2.21,1.2c.65.41,1.42.87,2.31,1.37a24.73,24.73,0,0,0,2.74,1.33,25.14,25.14,0,0,0,2.89,1,10.68,10.68,0,0,0,2.87.4,12.33,12.33,0,0,0,6.57-1.55,4.68,4.68,0,0,0,2.47-4.12,5.07,5.07,0,0,0-.62-2.57,5.7,5.7,0,0,0-1.68-1.82,11.57,11.57,0,0,0-2.39-1.28q-1.33-.54-3-1c-1.1-.33-2.17-.64-3.23-.93q-2.4-.63-4.7-1.42a17.3,17.3,0,0,1-4.17-2.08,10,10,0,0,1-3-3.28,10.08,10.08,0,0,1-1.15-5.1,10.71,10.71,0,0,1,1.86-6.29,12,12,0,0,1,5.23-4.12,19.72,19.72,0,0,1,7.88-1.46,24.44,24.44,0,0,1,3.64.26,16.5,16.5,0,0,1,3.23.85,24.11,24.11,0,0,1,3,1.32,18.68,18.68,0,0,1,2.75,1.82,3.21,3.21,0,0,1,1.68,2.31,3.69,3.69,0,0,1-1,2.57,3.53,3.53,0,0,1-1.77,1.46,2,2,0,0,1-1.95-.49,18.89,18.89,0,0,0-3-1.86,22.42,22.42,0,0,0-3.27-1.33,11.62,11.62,0,0,0-3.46-.53,11.05,11.05,0,0,0-4,.66,5.71,5.71,0,0,0-2.65,1.95,4.75,4.75,0,0,0-.94,2.88,3.41,3.41,0,0,0,.76,2.3,6.13,6.13,0,0,0,1.95,1.51,15.18,15.18,0,0,0,2.83,1.11c1.1.33,2.23.64,3.42.93,1.71.42,3.47.9,5.27,1.46a20.1,20.1,0,0,1,4.87,2.22,10.88,10.88,0,0,1,3.54,3.63,11.39,11.39,0,0,1,1.38,6,10.81,10.81,0,0,1-4.61,9.22Q1009.48,594.42,1001.86,594.41Z" transform="translate(-101.62 -188.14)"/><path class="cls-4" d="M1069.3,594a19,19,0,0,1-14-6.12,21.85,21.85,0,0,1-4.25-6.87,23.25,23.25,0,0,1-1.55-8.64,22.75,22.75,0,0,1,1.55-8.51,21.64,21.64,0,0,1,4.25-6.78,19.22,19.22,0,0,1,6.34-4.47,19.47,19.47,0,0,1,15.46,0,17.62,17.62,0,0,1,6,4.47,19.9,19.9,0,0,1,3.86,6.83,26.79,26.79,0,0,1,1.32,8.55,24.23,24.23,0,0,1-1.28,8.6,21.57,21.57,0,0,1-3.85,6.82,17,17,0,0,1-6,4.52A19,19,0,0,1,1069.3,594Zm1.16-7.54a12.64,12.64,0,0,0,11.38-6.69,14.74,14.74,0,0,0,1.73-7.22,14.93,14.93,0,0,0-1.73-7.31,12.64,12.64,0,0,0-11.38-6.69,13,13,0,0,0-6.74,1.77,12.61,12.61,0,0,0-4.74,4.92,14.93,14.93,0,0,0-1.73,7.31,14.74,14.74,0,0,0,1.73,7.22,12.5,12.5,0,0,0,4.78,4.92A13.14,13.14,0,0,0,1070.46,586.43Zm17.36,7.54a4.54,4.54,0,0,1-2.83-.71,3.41,3.41,0,0,1-1.07-2.4V535.39a9.76,9.76,0,0,1,.22-2.22,2.15,2.15,0,0,1,1.07-1.37,6.75,6.75,0,0,1,5,0,2.31,2.31,0,0,1,1.11,1.37,7.75,7.75,0,0,1,.26,2.13v54.59a8.22,8.22,0,0,1-.26,2.17,2.37,2.37,0,0,1-1.07,1.42A4.94,4.94,0,0,1,1087.82,594Z" transform="translate(-101.62 -188.14)"/><path class="cls-4" d="M1107.05,540.44a5.85,5.85,0,0,1-2.93-.58,2.69,2.69,0,0,1-1.28-1.64,8.7,8.7,0,0,1-.31-2.48,7.6,7.6,0,0,1,.35-2.43,2.58,2.58,0,0,1,1.33-1.51,6.89,6.89,0,0,1,2.93-.49,6.08,6.08,0,0,1,2.83.53,2.61,2.61,0,0,1,1.29,1.6,9.13,9.13,0,0,1,.31,2.48,8.72,8.72,0,0,1-.31,2.44,2.6,2.6,0,0,1-1.29,1.55A6.33,6.33,0,0,1,1107.05,540.44Zm0,53.53a5.24,5.24,0,0,1-2.53-.49,2.31,2.31,0,0,1-1.1-1.38,7.29,7.29,0,0,1-.27-2.12V555a7.36,7.36,0,0,1,.27-2.13,2.11,2.11,0,0,1,1.1-1.33,5.78,5.78,0,0,1,2.62-.45,4.94,4.94,0,0,1,2.48.49,2.34,2.34,0,0,1,1.06,1.38,7.66,7.66,0,0,1,.27,2.21v34.92a7.41,7.41,0,0,1-.27,2.13,2.13,2.13,0,0,1-1.11,1.32A5.51,5.51,0,0,1,1107.05,594Z" transform="translate(-101.62 -188.14)"/><path class="cls-4" d="M1136.83,594.41a23.83,23.83,0,0,1-4.43-.44,26.42,26.42,0,0,1-4.48-1.29,17.73,17.73,0,0,1-3.81-2,8,8,0,0,1-2.43-2.57,5.06,5.06,0,0,1-.54-1.64,2.53,2.53,0,0,1,.27-1.47,5.63,5.63,0,0,1,1.06-1.42,2.27,2.27,0,0,1,1.78-1,4.15,4.15,0,0,1,2.21,1.2c.65.41,1.42.87,2.3,1.37a24.27,24.27,0,0,0,5.63,2.3,10.8,10.8,0,0,0,2.88.4,12.27,12.27,0,0,0,6.56-1.55,4.69,4.69,0,0,0,2.48-4.12,5.07,5.07,0,0,0-.62-2.57,5.82,5.82,0,0,0-1.68-1.82,11.4,11.4,0,0,0-2.4-1.28,30.72,30.72,0,0,0-3-1c-1.1-.33-2.17-.64-3.24-.93q-2.39-.63-4.7-1.42a17.22,17.22,0,0,1-4.16-2.08,9.38,9.38,0,0,1-4.17-8.38,10.65,10.65,0,0,1,1.87-6.29,12,12,0,0,1,5.23-4.12,19.72,19.72,0,0,1,7.88-1.46,24.21,24.21,0,0,1,3.63.26,16.41,16.41,0,0,1,3.24.85,24.8,24.8,0,0,1,3,1.32,18.09,18.09,0,0,1,2.74,1.82,3.2,3.2,0,0,1,1.69,2.31,3.73,3.73,0,0,1-1,2.57,3.58,3.58,0,0,1-1.77,1.46,2,2,0,0,1-2-.49,19.34,19.34,0,0,0-3-1.86,22.09,22.09,0,0,0-3.28-1.33,11.52,11.52,0,0,0-3.46-.53,11,11,0,0,0-3.94.66,5.69,5.69,0,0,0-2.66,1.95,4.81,4.81,0,0,0-.93,2.88,3.41,3.41,0,0,0,.75,2.3,6.24,6.24,0,0,0,1.95,1.51,15.58,15.58,0,0,0,2.84,1.11c1.09.33,2.23.64,3.41.93,1.71.42,3.47.9,5.28,1.46a20.45,20.45,0,0,1,4.87,2.22,11,11,0,0,1,3.54,3.63,11.39,11.39,0,0,1,1.38,6,10.81,10.81,0,0,1-4.61,9.22Q1144.46,594.42,1136.83,594.41Z" transform="translate(-101.62 -188.14)"/><path class="cls-4" d="M1183.44,594.41a23.82,23.82,0,0,1-9.48-1.78,20.44,20.44,0,0,1-7-4.83,21,21,0,0,1-4.39-7,24.2,24.2,0,0,1-1.5-8.59,20.91,20.91,0,0,1,2.84-10.91,20.5,20.5,0,0,1,7.83-7.57,23.21,23.21,0,0,1,11.48-2.79,21.44,21.44,0,0,1,7.93,1.37,18.63,18.63,0,0,1,6,3.68,16.49,16.49,0,0,1,3.81,5.14,13.22,13.22,0,0,1,1.34,5.67c0,3-.71,5.13-2.13,6.34a7.78,7.78,0,0,1-5.23,1.81h-25.61a10.21,10.21,0,0,0,2.08,6.69,14.32,14.32,0,0,0,5.5,4.3,16,16,0,0,0,6.69,1.51,28.72,28.72,0,0,0,4.25-.27,17.71,17.71,0,0,0,3.11-.71,24.51,24.51,0,0,0,2.3-.88c.64-.3,1.22-.6,1.72-.89a6,6,0,0,1,1.47-.62,2.58,2.58,0,0,1,1.55.13,2.36,2.36,0,0,1,1.19,1.2,4,4,0,0,1,.71,1.33A4.75,4.75,0,0,1,1200,588c0,.83-.71,1.74-2.13,2.75a19.68,19.68,0,0,1-5.89,2.57A31.85,31.85,0,0,1,1183.44,594.41Zm-14.18-24.73h22.24a5.71,5.71,0,0,0,2.53-.44c.56-.29.84-1.09.84-2.39a7.21,7.21,0,0,0-1.51-4.48,10.79,10.79,0,0,0-4.12-3.23,13.72,13.72,0,0,0-6-1.24,16.16,16.16,0,0,0-7.13,1.55,12.88,12.88,0,0,0-5.1,4.21A9.77,9.77,0,0,0,1169.26,569.68Z" transform="translate(-101.62 -188.14)"/><path class="cls-4" d="M1215,593.88a5.21,5.21,0,0,1-2.53-.49,2.1,2.1,0,0,1-1.06-1.38,8.63,8.63,0,0,1-.22-2.12V554.71a6.44,6.44,0,0,1,.26-2,2.13,2.13,0,0,1,1.11-1.24,7.14,7.14,0,0,1,4.61-.13,2.08,2.08,0,0,1,1.06.83,3.14,3.14,0,0,1,.4,1.16,8,8,0,0,1,.09,1.15l-.18,4.07a15.06,15.06,0,0,1,2.22-2.87,16.11,16.11,0,0,1,3.1-2.49,15.51,15.51,0,0,1,8.33-2.34,18.34,18.34,0,0,1,7.18,1.37,15.6,15.6,0,0,1,5.62,4,18.32,18.32,0,0,1,3.64,6.25,24.79,24.79,0,0,1,1.28,8.24V590a8.68,8.68,0,0,1-.22,2.12,2,2,0,0,1-1.06,1.33,7.29,7.29,0,0,1-5.15,0,2.32,2.32,0,0,1-1.1-1.38,7.24,7.24,0,0,1-.27-2.12V570.66a15.72,15.72,0,0,0-1.23-6.47,9.66,9.66,0,0,0-3.73-4.3,11.7,11.7,0,0,0-6.29-1.55,12.57,12.57,0,0,0-6.34,1.55,10.57,10.57,0,0,0-4.16,4.3,13.52,13.52,0,0,0-1.47,6.47V590a7.31,7.31,0,0,1-.26,2.12,2.16,2.16,0,0,1-1.11,1.33A5.51,5.51,0,0,1,1215,593.88Zm10.46-60.35a6.42,6.42,0,0,1,3.76,1c1,.68,1.88,1.36,2.7,2a4,4,0,0,0,2.48,1,2.35,2.35,0,0,0,1.47-.53,17.57,17.57,0,0,0,1.33-1.19,10.2,10.2,0,0,1,1.28-1.11,2,2,0,0,1,1.46-.8,3.33,3.33,0,0,1,1.91.44,5.21,5.21,0,0,1,1.55,1.51,2,2,0,0,1,.13,1.77,6.34,6.34,0,0,1-1.59,3.28,10.39,10.39,0,0,1-3.19,2.44,9,9,0,0,1-4.08.93,5.78,5.78,0,0,1-3.23-1c-1-.68-2-1.37-2.93-2.08a4.54,4.54,0,0,0-2.79-1.06,4.26,4.26,0,0,0-2.44.75,5.22,5.22,0,0,0-1.64,1.72,2.28,2.28,0,0,1-1.37,1,2.71,2.71,0,0,1-2.17-.53,3.35,3.35,0,0,1-1.55-1.86,2.83,2.83,0,0,1,.31-2.22,10.9,10.9,0,0,1,2.22-2.7,11.3,11.3,0,0,1,3.14-2A8.15,8.15,0,0,1,1225.45,533.53Z" transform="translate(-101.62 -188.14)"/><path class="cls-4" d="M1279.86,594.5a20.94,20.94,0,0,1-8.29-1.69,23.36,23.36,0,0,1-7-4.65,21.86,21.86,0,0,1-4.87-7,21.12,21.12,0,0,1-1.77-8.68,21.59,21.59,0,0,1,1.68-8.55,21.88,21.88,0,0,1,4.7-7,22.5,22.5,0,0,1,7-4.74,20.85,20.85,0,0,1,8.46-1.73,21.43,21.43,0,0,1,11,2.88,22.43,22.43,0,0,1,9,27.92,21.44,21.44,0,0,1-4.78,6.95,22.13,22.13,0,0,1-6.91,4.57A20.89,20.89,0,0,1,1279.86,594.5Zm-.18-7.72a13.45,13.45,0,0,0,6.91-1.85,14.34,14.34,0,0,0,7.09-12.59,14.76,14.76,0,0,0-1.81-7.36,13,13,0,0,0-5-5,14.85,14.85,0,0,0-7.27-1.77,13.6,13.6,0,0,0-7,1.86,14.4,14.4,0,0,0-5,5.06,13.87,13.87,0,0,0-1.9,7.26,14.22,14.22,0,0,0,2,7.49,13.86,13.86,0,0,0,5.18,5.05A14,14,0,0,0,1279.68,586.78Z" transform="translate(-101.62 -188.14)"/><path class="cls-5" d="M102.51,188.14l137.33.24L239,374.24S233.66,218.27,102.51,188.14Z" transform="translate(-101.62 -188.14)"/><path class="cls-4" d="M348.87,424.57S276.3,587.69,466.47,661.62l-100.76-1.14L312.53,550.59S311.65,474.89,348.87,424.57Z" transform="translate(-101.62 -188.14)"/></svg>